<svg xmlns="http://www.w3.org/2000/svg" viewBox="0 0 109.28 104.57"><defs><style>.cls-1,.cls-2{fill:#fff;}.cls-1,.cls-2,.cls-4,.cls-6{stroke:#009444;}.cls-1,.cls-6{stroke-linejoin:bevel;}.cls-2,.cls-3,.cls-4{stroke-miterlimit:10;}.cls-3,.cls-4,.cls-6{fill:none;}.cls-3{stroke:#e0e0df;}.cls-5{fill:#80cbae;}</style></defs><title>mint_books</title><g id="Layer_1" data-name="Layer 1"><polygon class="cls-1" points="10.63 6.99 0.5 21.71 1.13 56.62 10.81 35.77 10.63 6.99"/><rect class="cls-2" x="10.78" y="7.2" width="52.59" height="81.9"/><rect class="cls-2" x="0.87" y="22.17" width="52.59" height="81.9"/><polyline class="cls-3" points="83.03 75.96 100.03 59.76 83.03 42.47"/><polyline class="cls-3" points="74.53 75.96 91.53 59.76 74.53 42.47"/><polyline class="cls-4" points="91.56 75.96 108.56 59.76 91.56 42.47"/><path class="cls-5" d="M77.93,20.66s-4.2,1.56-5.4,4.16a36.33,36.33,0,0,0-1.8,4.67v70.93l6.9-8.83Z" transform="translate(-16.82 -2.25)"/><line class="cls-4" x1="55.85" y1="23.4" x2="55.85" y2="95.68"/><line class="cls-4" x1="58.34" y1="19.25" x2="58.34" y2="92.36"/><line class="cls-4" x1="57.82" y1="13.33" x2="51.69" y2="19.52"/></g><g id="Layer_3" data-name="Layer 3"><line class="cls-4" x1="26.79" y1="77.62" x2="26.79" y2="35.62"/><circle class="cls-4" cx="26.96" cy="51.21" r="8.1"/><line class="cls-4" x1="13.77" y1="91.8" x2="40.15" y2="91.8"/><line class="cls-4" x1="20.91" y1="96.19" x2="31.9" y2="96.19"/></g><g id="Layer_4" data-name="Layer 4"><line class="cls-6" x1="53.79" y1="16.17" x2="11.41" y2="16.17"/><line class="cls-6" x1="57.82" y1="13.33" x2="11.89" y2="13.33"/><line class="cls-6" x1="49.75" y1="19.52" x2="10.23" y2="19.48"/><polyline class="cls-2" points="40.13 12.81 40.3 1.02 36.08 4.21 32.25 1.02 32.19 0.56 32.19 12.85"/></g></svg>