<svg xmlns="http://www.w3.org/2000/svg" viewBox="0 0 109.28 97.87"><defs><style>.cls-1,.cls-2{fill:#fff;}.cls-1,.cls-2,.cls-4{stroke:#009444;}.cls-1{stroke-linejoin:bevel;}.cls-2,.cls-3,.cls-4{stroke-miterlimit:10;}.cls-3,.cls-4{fill:none;}.cls-3{stroke:#e0e0df;}.cls-5{fill:#009444;}</style></defs><title>mint_about</title><g id="Layer_1_copy_2" data-name="Layer 1 copy 2"><polygon class="cls-1" points="10.63 0.28 0.5 15.02 1.13 49.92 10.81 29.07 10.63 0.28"/><rect class="cls-2" x="10.78" y="0.5" width="52.59" height="81.9"/><rect class="cls-2" x="0.87" y="15.47" width="52.59" height="81.9"/><polyline class="cls-3" points="83.03 69.26 100.03 53.06 83.03 35.77"/><polyline class="cls-3" points="74.53 69.26 91.53 53.06 74.53 35.77"/><polyline class="cls-4" points="91.56 69.26 108.56 53.06 91.56 35.77"/></g><g id="Layer_7" data-name="Layer 7"><path class="cls-4" d="M44,32.53c3.92-.92,8.07,1.32,10.48,4.55s3.39,7.3,4.08,11.27a30.8,30.8,0,0,1,.55,8.23,8.81,8.81,0,0,1-2.7,6c-1.74,1.43-4.67,1.54-6.06-.24a4.28,4.28,0,0,1-.73-3.27,5.71,5.71,0,0,1,9.53-3.32c2,1.86,2.41,4.82,2.61,7.53A127.81,127.81,0,0,1,62,76.43a72.35,72.35,0,0,1-13-1.11" transform="translate(-16.82 -8.95)"/><path class="cls-4" d="M49.31,75.25Q47.45,84.45,45,93.51" transform="translate(-16.82 -8.95)"/><ellipse class="cls-5" cx="37.52" cy="62.05" rx="9.27" ry="5.84" transform="translate(-51.8 54.57) rotate(-60)"/><line class="cls-4" x1="33.69" y1="24.46" x2="9.71" y2="74.73"/></g></svg>